HIERARCHY
ROOT pelvis
{
  OFFSET 0 100 0
  CHANNELS 6 Xposition Yposition Zposition Zrotation Xrotation Yrotation
  JOINT pelvis_right_femur
  {
    OFFSET -10.78128 -3.44521 -0.5502486
    CHANNELS 3 Zrotation Xrotation Yrotation
    JOINT right_femur_tibia
    {
      OFFSET -0.8047443 -44.0398 -0.1307829
      CHANNELS 3 Zrotation Xrotation Yrotation
      JOINT right_tibia_foot
      {
        OFFSET 3.006224 -47.83518 -5
        CHANNELS 3 Zrotation Xrotation Yrotation
        End Site
        {
          OFFSET 0 -5 15
        }
      }
    }
  }
  JOINT pelvis_left_femur
  {
    OFFSET 10.78128 -3.44521 -0.5502486
    CHANNELS 3 Zrotation Xrotation Yrotation
    JOINT left_femur_tibia
    {
      OFFSET 0.8047443 -44.0398 -0.1307829
      CHANNELS 3 Zrotation Xrotation Yrotation
      JOINT left_tibia_foot
      {
        OFFSET -4.370144 -48.10324 -4.275266
        CHANNELS 3 Zrotation Xrotation Yrotation
        End Site
        {
          OFFSET 0 -5 15
        }
      }
    }
  }
  JOINT pelvis_spine1
  {
    OFFSET 0 6.468898 -3.129235
    CHANNELS 3 Zrotation Xrotation Yrotation
    JOINT spine1
    {
      OFFSET 0 23.15396 4.99043
      CHANNELS 3 Zrotation Xrotation Yrotation
      JOINT spine2
      {
        OFFSET 0 20.79997 -5.064912
        CHANNELS 3 Zrotation Xrotation Yrotation
        JOINT neck
        {
          OFFSET 0 14.38658 9.616178
          CHANNELS 3 Zrotation Xrotation Yrotation
          End Site
          {
            OFFSET 0 20 0
          }
        }
      }
      JOINT right_manubrium
      {
        OFFSET -5.722621 16.35077 3.967754
        CHANNELS 3 Zrotation Xrotation Yrotation
        JOINT right_clavicle
        {
          OFFSET -13.16364 1.694482 -4.693211
          CHANNELS 3 Zrotation Xrotation Yrotation
          JOINT right_humerus
          {
            OFFSET -28.5034 -0.3100689 -2.792744
            CHANNELS 3 Zrotation Xrotation Yrotation
            JOINT right_radius
            {
              OFFSET -25.15693 0.02248979 -1.271978
              CHANNELS 3 Zrotation Xrotation Yrotation
              End Site
              {
                OFFSET -15 0 0
              }
            }
          }
        }
      }
      JOINT left_manubrium
      {
        OFFSET 5.722621 16.35077 3.967754
        CHANNELS 3 Zrotation Xrotation Yrotation
        JOINT left_clavicle
        {
          OFFSET 13.16364 1.694482 -4.693211
          CHANNELS 3 Zrotation Xrotation Yrotation
          JOINT left_humerus
          {
            OFFSET 29.39168 -1.063119 -2.237045
            CHANNELS 3 Zrotation Xrotation Yrotation
            JOINT left_radius
            {
              OFFSET 24.59957 -0.9528479 0.9047498
              CHANNELS 3 Zrotation Xrotation Yrotation
              End Site
              {
                OFFSET 15 -0 -0
              }
            }
          }
        }
      }
    }
  }
}
MOTION
Frames: 17
Frame Time: 0.0416666666667
-2011.238 113.6859 1176.293 -6.694898 3.481331 -147.9864 -1.619333 6.55589 -3.54274 -0 22.3458 -0 -16.10964 -5.619153 5.790488 -2.309755 -15.42435 -8.744766 -0 16.58274 -0 6.688135 2.311464 17.1183 -3.223826 -1.434687 8.444699 -1.373889 13.8669 -3.420231 -1.468152 20.76982 7.826272 11.42679 -11.34914 -0.8553651 8.351277 -22.3919 12.92696 78.48819 36.41077 -8.474305 -0 0 21.64688 -20.86367 4.028046 10.23777 5.851018 -24.1597 -10.71421 -91.20181 2.245652 25.80131 0 0 -4.339429 17.05045 2.949151 -10.94781
-2015.818 113.6655 1172.027 -6.676668 3.516281 -148.2851 -1.619333 6.55589 -3.54274 -0 22.3458 -0 -16.10964 -5.619153 5.790488 -2.309755 -15.42435 -8.744766 -0 16.58274 -0 6.688135 2.311464 17.1183 -3.223826 -1.434687 8.444699 -1.373889 13.8669 -3.420231 -1.468152 20.76982 7.826272 11.42679 -11.34914 -0.8553651 8.351277 -22.3919 12.92696 78.48819 36.41077 -8.474305 -0 0 21.64688 -20.86367 4.028046 10.23777 5.851018 -24.1597 -10.71421 -91.20181 2.245652 25.80131 0 0 -4.339429 17.05045 2.949151 -10.94781
-2020.376 113.6451 1167.738 -6.658255 3.551137 -148.5839 -1.619333 6.55589 -3.54274 -0 22.3458 -0 -16.10964 -5.619153 5.790488 -2.309755 -15.42435 -8.744766 -0 16.58274 -0 6.688135 2.311464 17.1183 -3.223826 -1.434687 8.444699 -1.373889 13.8669 -3.420231 -1.468152 20.76982 7.826272 11.42679 -11.34914 -0.8553651 8.351277 -22.3919 12.92696 78.48819 36.41077 -8.474305 -0 0 21.64688 -20.86367 4.028046 10.23777 5.851018 -24.1597 -10.71421 -91.20181 2.245652 25.80131 0 0 -4.339429 17.05045 2.949151 -10.94781
-2024.911 113.6247 1163.425 -6.63966 3.585895 -148.8826 -1.619333 6.55589 -3.54274 -0 22.3458 -0 -16.10964 -5.619153 5.790488 -2.309755 -15.42435 -8.744766 -0 16.58274 -0 6.688135 2.311464 17.1183 -3.223826 -1.434687 8.444699 -1.373889 13.8669 -3.420231 -1.468152 20.76982 7.826272 11.42679 -11.34914 -0.8553651 8.351277 -22.3919 12.92696 78.48819 36.41077 -8.474305 -0 0 21.64688 -20.86367 4.028046 10.23777 5.851018 -24.1597 -10.71421 -91.20181 2.245652 25.80131 0 0 -4.339429 17.05045 2.949151 -10.94781
-2029.424 113.6043 1159.088 -6.620882 3.620557 -149.1814 -1.619333 6.55589 -3.54274 -0 22.3458 -0 -16.10964 -5.619153 5.790488 -2.309755 -15.42435 -8.744766 -0 16.58274 -0 6.688135 2.311464 17.1183 -3.223826 -1.434687 8.444699 -1.373889 13.8669 -3.420231 -1.468152 20.76982 7.826272 11.42679 -11.34914 -0.8553651 8.351277 -22.3919 12.92696 78.48819 36.41077 -8.474305 -0 0 21.64688 -20.86367 4.028046 10.23777 5.851018 -24.1597 -10.71421 -91.20181 2.245652 25.80131 0 0 -4.339429 17.05045 2.949151 -10.94781
-2033.913 113.5839 1154.728 -6.601923 3.65512 -149.4802 -1.619333 6.55589 -3.54274 -0 22.3458 -0 -16.10964 -5.619153 5.790488 -2.309755 -15.42435 -8.744766 -0 16.58274 -0 6.688135 2.311464 17.1183 -3.223826 -1.434687 8.444699 -1.373889 13.8669 -3.420231 -1.468152 20.76982 7.826272 11.42679 -11.34914 -0.8553651 8.351277 -22.3919 12.92696 78.48819 36.41077 -8.474305 -0 0 21.64688 -20.86367 4.028046 10.23777 5.851018 -24.1597 -10.71421 -91.20181 2.245652 25.80131 0 0 -4.339429 17.05045 2.949151 -10.94781
-2038.38 113.5635 1150.344 -6.582783 3.689585 -149.779 -1.619333 6.55589 -3.54274 -0 22.3458 -0 -16.10964 -5.619153 5.790488 -2.309755 -15.42435 -8.744766 -0 16.58274 -0 6.688135 2.311464 17.1183 -3.223826 -1.434687 8.444699 -1.373889 13.8669 -3.420231 -1.468152 20.76982 7.826272 11.42679 -11.34914 -0.8553651 8.351277 -22.3919 12.92696 78.48819 36.41077 -8.474305 -0 0 21.64688 -20.86367 4.028046 10.23777 5.851018 -24.1597 -10.71421 -91.20181 2.245652 25.80131 0 0 -4.339429 17.05045 2.949151 -10.94781
-2042.824 113.5431 1145.937 -6.563462 3.723949 -150.0779 -1.619333 6.55589 -3.54274 -0 22.3458 -0 -16.10964 -5.619153 5.790488 -2.309755 -15.42435 -8.744766 -0 16.58274 -0 6.688135 2.311464 17.1183 -3.223826 -1.434687 8.444699 -1.373889 13.8669 -3.420231 -1.468152 20.76982 7.826272 11.42679 -11.34914 -0.8553651 8.351277 -22.3919 12.92696 78.48819 36.41077 -8.474305 -0 0 21.64688 -20.86367 4.028046 10.23777 5.851018 -24.1597 -10.71421 -91.20181 2.245652 25.80131 0 0 -4.339429 17.05045 2.949151 -10.94781
-2047.244 113.5227 1141.506 -6.543962 3.758212 -150.3768 -1.619333 6.55589 -3.54274 -0 22.3458 -0 -16.10964 -5.619153 5.790488 -2.309755 -15.42435 -8.744766 -0 16.58274 -0 6.688135 2.311464 17.1183 -3.223826 -1.434687 8.444699 -1.373889 13.8669 -3.420231 -1.468152 20.76982 7.826272 11.42679 -11.34914 -0.8553651 8.351277 -22.3919 12.92696 78.48819 36.41077 -8.474305 -0 0 21.64688 -20.86367 4.028046 10.23777 5.851018 -24.1597 -10.71421 -91.20181 2.245652 25.80131 0 0 -4.339429 17.05045 2.949151 -10.94781
-2051.642 113.5024 1137.053 -6.524281 3.792373 -150.6756 -1.619333 6.55589 -3.54274 -0 22.3458 -0 -16.10964 -5.619153 5.790488 -2.309755 -15.42435 -8.744766 -0 16.58274 -0 6.688135 2.311464 17.1183 -3.223826 -1.434687 8.444699 -1.373889 13.8669 -3.420231 -1.468152 20.76982 7.826272 11.42679 -11.34914 -0.8553651 8.351277 -22.3919 12.92696 78.48819 36.41077 -8.474305 -0 0 21.64688 -20.86367 4.028046 10.23777 5.851018 -24.1597 -10.71421 -91.20181 2.245652 25.80131 0 0 -4.339429 17.05045 2.949151 -10.94781
-2056.016 113.482 1132.576 -6.504421 3.826431 -150.9746 -1.619333 6.55589 -3.54274 -0 22.3458 -0 -16.10964 -5.619153 5.790488 -2.309755 -15.42435 -8.744766 -0 16.58274 -0 6.688135 2.311464 17.1183 -3.223826 -1.434687 8.444699 -1.373889 13.8669 -3.420231 -1.468152 20.76982 7.826272 11.42679 -11.34914 -0.8553651 8.351277 -22.3919 12.92696 78.48819 36.41077 -8.474305 -0 0 21.64688 -20.86367 4.028046 10.23777 5.851018 -24.1597 -10.71421 -91.20181 2.245652 25.80131 0 0 -4.339429 17.05045 2.949151 -10.94781
-2060.366 113.4616 1128.077 -6.484383 3.860386 -151.2735 -1.619333 6.55589 -3.54274 -0 22.3458 -0 -16.10964 -5.619153 5.790488 -2.309755 -15.42435 -8.744766 -0 16.58274 -0 6.688135 2.311464 17.1183 -3.223826 -1.434687 8.444699 -1.373889 13.8669 -3.420231 -1.468152 20.76982 7.826272 11.42679 -11.34914 -0.8553651 8.351277 -22.3919 12.92696 78.48819 36.41077 -8.474305 -0 0 21.64688 -20.86367 4.028046 10.23777 5.851018 -24.1597 -10.71421 -91.20181 2.245652 25.80131 0 0 -4.339429 17.05045 2.949151 -10.94781
-2064.693 113.4412 1123.555 -6.464167 3.894235 -151.5725 -1.619333 6.55589 -3.54274 -0 22.3458 -0 -16.10964 -5.619153 5.790488 -2.309755 -15.42435 -8.744766 -0 16.58274 -0 6.688135 2.311464 17.1183 -3.223826 -1.434687 8.444699 -1.373889 13.8669 -3.420231 -1.468152 20.76982 7.826272 11.42679 -11.34914 -0.8553651 8.351277 -22.3919 12.92696 78.48819 36.41077 -8.474305 -0 0 21.64688 -20.86367 4.028046 10.23777 5.851018 -24.1597 -10.71421 -91.20181 2.245652 25.80131 0 0 -4.339429 17.05045 2.949151 -10.94781
-2068.996 113.4208 1119.01 -6.443773 3.927979 -151.8715 -1.619333 6.55589 -3.54274 -0 22.3458 -0 -16.10964 -5.619153 5.790488 -2.309755 -15.42435 -8.744766 -0 16.58274 -0 6.688135 2.311464 17.1183 -3.223826 -1.434687 8.444699 -1.373889 13.8669 -3.420231 -1.468152 20.76982 7.826272 11.42679 -11.34914 -0.8553651 8.351277 -22.3919 12.92696 78.48819 36.41077 -8.474305 -0 0 21.64688 -20.86367 4.028046 10.23777 5.851018 -24.1597 -10.71421 -91.20181 2.245652 25.80131 0 0 -4.339429 17.05045 2.949151 -10.94781
-2073.275 113.4004 1114.443 -6.423202 3.961617 -152.1705 -1.619333 6.55589 -3.54274 -0 22.3458 -0 -16.10964 -5.619153 5.790488 -2.309755 -15.42435 -8.744766 -0 16.58274 -0 6.688135 2.311464 17.1183 -3.223826 -1.434687 8.444699 -1.373889 13.8669 -3.420231 -1.468152 20.76982 7.826272 11.42679 -11.34914 -0.8553651 8.351277 -22.3919 12.92696 78.48819 36.41077 -8.474305 -0 0 21.64688 -20.86367 4.028046 10.23777 5.851018 -24.1597 -10.71421 -91.20181 2.245652 25.80131 0 0 -4.339429 17.05045 2.949151 -10.94781
-2077.53 113.38 1109.853 -6.402454 3.995146 -152.4695 -1.619333 6.55589 -3.54274 -0 22.3458 -0 -16.10964 -5.619153 5.790488 -2.309755 -15.42435 -8.744766 -0 16.58274 -0 6.688135 2.311464 17.1183 -3.223826 -1.434687 8.444699 -1.373889 13.8669 -3.420231 -1.468152 20.76982 7.826272 11.42679 -11.34914 -0.8553651 8.351277 -22.3919 12.92696 78.48819 36.41077 -8.474305 -0 0 21.64688 -20.86367 4.028046 10.23777 5.851018 -24.1597 -10.71421 -91.20181 2.245652 25.80131 0 0 -4.339429 17.05045 2.949151 -10.94781
-2081.761 113.3596 1105.242 -6.381531 4.028567 -152.7686 -1.619333 6.55589 -3.54274 -0 22.3458 -0 -16.10964 -5.619153 5.790488 -2.309755 -15.42435 -8.744766 -0 16.58274 -0 6.688135 2.311464 17.1183 -3.223826 -1.434687 8.444699 -1.373889 13.8669 -3.420231 -1.468152 20.76982 7.826272 11.42679 -11.34914 -0.8553651 8.351277 -22.3919 12.92696 78.48819 36.41077 -8.474305 -0 0 21.64688 -20.86367 4.028046 10.23777 5.851018 -24.1597 -10.71421 -91.20181 2.245652 25.80131 0 0 -4.339429 17.05045 2.949151 -10.94781
